<?xml version="1.0" encoding="UTF-8"?>
<svg version="1.1" xmlns="http://www.w3.org/2000/svg" width="883" height="565">
<path d="M0 0 C7.52546004 0.69575527 14.82145672 2.06039576 22.22363281 3.56591797 C23.54371503 3.83148051 24.86386594 4.09670182 26.18407917 4.36161232 C29.77180625 5.0825578 33.35853515 5.80835969 36.94509053 6.53510857 C40.77413341 7.31019631 44.60403299 8.08102928 48.43382263 8.85241699 C54.97693668 10.17093287 61.51945081 11.49239248 68.06161499 12.81561279 C76.55368942 14.53312716 85.04693725 16.24476834 93.54054928 17.95466042 C123.89116084 24.06471387 154.23982294 30.18145855 184.54545975 36.51147079 C187.87219737 37.20593339 191.1993656 37.89829101 194.52670288 38.58987427 C196.631414 39.02750132 198.73611993 39.46515333 200.84082031 39.90283203 C201.84583147 40.11178164 202.85084263 40.32073124 203.88630867 40.53601265 C209.65370509 41.73702093 215.41727901 42.95461465 221.17839718 44.18536758 C224.68698262 44.93133819 228.19847355 45.66284548 231.71086311 46.39067078 C233.27823314 46.71874403 234.84434638 47.05290714 236.40884209 47.39442444 C265.21576057 53.6763826 288.93679856 45.66127251 315.93310547 35.93225098 C321.41136255 33.9583054 326.89320625 31.99466676 332.38021851 30.04519081 C334.28495732 29.36530003 336.186089 28.67595885 338.0871582 27.98588562 C339.23015381 27.57828506 340.37314941 27.17068451 341.55078125 26.75073242 C342.55794189 26.38751389 343.56510254 26.02429535 344.6027832 25.65007019 C347 25 347 25 349 26 C349.375 29.1875 349.375 29.1875 349 33 C344.45312571 37.51763394 339.14036484 40.23820208 333.5 43.1875 C327.08801297 46.62442377 320.90551661 50.18106196 315 54.4375 C314.44376953 54.83799561 313.88753906 55.23849121 313.31445312 55.65112305 C307.447268 59.89243211 307.447268 59.89243211 304 66 C303.29186286 73.18585066 303.70853293 79.03726853 308 85 C314.42467993 91.80260228 324.19916405 93.73186668 333.1796875 94.0859375 C335.47050805 94.12557107 337.71074985 94.11846957 340 94 C340.66781494 93.97365479 341.33562988 93.94730957 342.02368164 93.92016602 C347.88570404 93.51435775 351.72782153 91.95009762 356.5625 88.6875 C357.23506836 88.25034668 357.90763672 87.81319336 358.60058594 87.36279297 C371.5880525 78.85838661 371.5880525 78.85838661 383.265625 68.7109375 C385.87283871 66.13895641 388.59580006 65.77121613 392.125 65.5625 C395.97350337 65.6427026 398.11135272 66.3979007 401.25390625 68.6015625 C402.03411133 69.14723877 402.81431641 69.69291504 403.61816406 70.25512695 C407.41032449 73.03316822 411.12559424 75.89660636 414.8125 78.8125 C416.40042659 80.05807619 417.9889683 81.30286861 419.578125 82.546875 C420.33931641 83.14306641 421.10050781 83.73925781 421.88476562 84.35351562 C425.52196716 87.18468912 429.21825246 89.9333621 432.9140625 92.6875 C437.32540136 95.99321216 441.69916999 99.34731634 446.07470703 102.70019531 C450.17916871 105.84461804 454.28885119 108.98190399 458.40625 112.109375 C459.78502319 113.15726196 459.78502319 113.15726196 461.19165039 114.22631836 C462.96611943 115.57448569 464.74129837 116.92171937 466.51733398 118.26782227 C468.17705023 119.52943908 469.83249737 120.79669395 471.48339844 122.06982422 C473.24844301 123.42357299 475.02925725 124.75689063 476.82128906 126.07470703 C477.72975586 126.76032715 478.63822266 127.44594727 479.57421875 128.15234375 C480.40139404 128.76456787 481.22856934 129.37679199 482.08081055 130.00756836 C484.4235696 132.43973432 484.68815079 133.92280641 484.875 137.25 C484.52889607 140.29010208 484.03311925 141.94204131 482.5 144.625 C478.84144516 146.63720516 475.98810146 146.96147777 472 146 C468.04025625 144.10303733 464.54550273 141.56739891 461 139 C459.98075439 138.26813477 459.98075439 138.26813477 458.94091797 137.52148438 C455.08648081 134.75176818 451.24173462 131.96873844 447.3984375 129.18359375 C446.27840332 128.37317627 446.27840332 128.37317627 445.13574219 127.54638672 C443.78852636 126.57093347 442.44263699 125.59364314 441.09863281 124.61376953 C439.47265988 123.43541632 437.8306584 122.27926806 436.1875 121.125 C435.29417969 120.48820312 434.40085937 119.85140625 433.48046875 119.1953125 C431.05282626 117.78461625 431.05282626 117.78461625 428.30078125 118.1171875 C425.66678537 118.87353078 425.66678537 118.87353078 424 122 C423.99917465 125.57756686 423.99917465 125.57756686 425 129 C426.87086629 130.10000506 426.87086629 130.10000506 429 131 C430.09057065 131.83373216 431.15073668 132.7084995 432.1796875 133.6171875 C432.77249512 134.13627686 433.36530273 134.65536621 433.97607422 135.19018555 C434.60271973 135.74617432 435.22936523 136.30216309 435.875 136.875 C437.20787761 138.0460918 438.54122292 139.21665148 439.875 140.38671875 C440.55433594 140.98403809 441.23367188 141.58135742 441.93359375 142.19677734 C443.96257205 143.96733898 446.00799452 145.71618692 448.0625 147.45703125 C448.7033252 148.00053223 449.34415039 148.5440332 450.00439453 149.10400391 C451.23261656 150.14371261 452.46270432 151.18122209 453.69482422 152.21630859 C458.86238668 156.60534194 458.86238668 156.60534194 459.203125 160.05859375 C459.21859375 160.84363281 459.2340625 161.62867188 459.25 162.4375 C459.27578125 163.21996094 459.3015625 164.00242187 459.328125 164.80859375 C458.91962728 167.53677498 458.16727539 168.3441611 456 170 C452.07653523 171.30782159 449.02594442 171.97380798 445 171 C441.33651202 168.80963144 438.09611291 166.16522922 434.80126953 163.45947266 C431.42910246 160.72718549 427.95592915 158.12492621 424.5 155.5 C420.44892333 152.42116372 416.40340771 149.3453726 412.45703125 146.1328125 C411.92078125 145.70548828 411.38453125 145.27816406 410.83203125 144.83789062 C409.41656525 143.70806494 408.01435565 142.56168639 406.61328125 141.4140625 C404.02424911 139.72430427 404.02424911 139.72430427 400.79296875 140.13671875 C397.85679838 140.78629502 397.85679838 140.78629502 396 143.1875 C394.65735989 146.96367532 395.36308829 148.37540978 397 152 C398.88856698 153.93201561 400.64850651 155.53206804 402.75 157.1875 C403.31549561 157.65599365 403.88099121 158.1244873 404.46362305 158.60717773 C407.54808207 161.13904501 410.70168888 163.51926043 413.97265625 165.8046875 C423.43957136 172.52628024 423.43957136 172.52628024 425.0546875 176.7734375 C425.2624023 180.93995211 424.54731152 183.23376387 422.125 186.625 C417.44452409 188.6844094 414.01205551 189.3135042 409 188 C405.0423034 185.626486 401.5992004 182.71589434 398.08740234 179.74365234 C393.8042951 176.16588019 389.40236116 172.74147667 385 169.3125 C384.09145264 168.58095703 383.18290527 167.84941406 382.24682617 167.09570312 C381.38162354 166.42087891 380.5164209 165.74605469 379.625 165.05078125 C378.46871094 164.13292847 378.46871094 164.13292847 377.2890625 163.1965332 C375.03353463 161.76100735 375.03353463 161.76100735 372.328125 162.19995117 C369.34470423 163.2251892 368.40657946 164.18684109 367 167 C366.94368523 169.45279009 366.94368523 169.45279009 368 172 C370.63146965 174.42286451 370.63146965 174.42286451 373.875 176.5625 C382.53476483 182.58260158 382.53476483 182.58260158 383.3984375 187.0703125 C383.37584179 189.05120319 383.19082011 191.02819216 383 193 C378.6010877 195.9326082 374.55469296 195.34113543 369.375 195.3125 C368.34044678 195.30758545 367.30589355 195.3026709 366.23999023 195.29760742 C335.86959416 194.83976225 306.40078667 182.75865936 285 161 C279.40999138 154.71825118 274.45284212 147.99738694 269.62890625 141.1171875 C268.17096107 138.90373333 268.17096107 138.90373333 266 138 C256.14097252 137.36120104 246.18858958 138.4858855 236.36328125 139.27734375 C234.67241399 139.40992247 232.98151043 139.54203906 231.29057312 139.67372131 C226.8630928 140.01952677 222.43604542 140.37057611 218.00909424 140.7230835 C210.94510161 141.28476852 203.88049763 141.83868923 196.8158474 142.39203072 C194.38061321 142.58356487 191.94558312 142.7775327 189.51057434 142.97190857 C174.41915566 144.1679497 159.32981717 145.1940489 144.1875 145.375 C142.98158203 145.41238281 141.77566406 145.44976562 140.53320312 145.48828125 C125.71435297 145.63238676 115.6016131 139.43240092 105.1875 129.4375 C98 121.99927326 98 121.99927326 98 117 C109.59250877 114.5551422 121.23155445 112.62359178 132.9375 110.8125 C134.69991542 110.53740154 136.46228552 110.26201257 138.22460938 109.98632812 C142.48255974 109.32088042 146.74109751 108.65932532 151 108 C150.06198547 108.00745743 149.12397095 108.01491486 148.15753174 108.02259827 C139.27245135 108.08730837 130.38836877 108.10407803 121.50308609 108.07515812 C116.93599268 108.06180017 112.37017336 108.06472357 107.80322266 108.10620117 C103.38700286 108.14568838 98.97278019 108.14065019 94.55654144 108.10607719 C92.88062119 108.10052297 91.20456897 108.11041193 89.52884674 108.13676643 C77.39759684 108.31337548 70.94288951 106.42504529 62 98 C60.77509451 97.01192384 59.54330754 96.03223045 58.30078125 95.06640625 C40.93327814 80.51402783 40.93327814 80.51402783 38 72 C44.23936054 71.23802037 50.39678953 70.79161961 56.67773438 70.61108398 C57.60139801 70.58167725 58.52506165 70.55227051 59.47671509 70.52197266 C62.51562436 70.42628888 65.55466344 70.33595724 68.59375 70.24609375 C70.74386108 70.18043518 72.89396679 70.1146003 75.04406738 70.04859924 C79.55958161 69.91088636 84.0751683 69.77593745 88.59082031 69.64282227 C93.15410021 69.50806359 97.71723318 69.36944803 102.28027344 69.22680664 C128.19241418 68.41686858 154.07368084 67.7326317 180 68 C180 67.34 180 66.68 180 66 C179.29341751 66.01989487 178.58683502 66.03978973 177.85884094 66.06028748 C165.13076205 66.24558433 152.48030426 65.18880526 139.79296875 64.28515625 C137.25623624 64.10781877 134.71947732 63.93085887 132.18269348 63.7542572 C126.88989215 63.38479643 121.59731952 63.01228491 116.30493164 62.63696289 C110.20891992 62.20467006 104.11259634 61.77703155 98.01606578 61.35212237 C92.11380676 60.94074443 86.21170512 60.52714986 80.30968666 60.1123333 C77.81354745 59.93693637 75.31738149 59.76191975 72.82118797 59.58729744 C69.33272123 59.34273848 65.84443959 59.09569221 62.35620117 58.84790039 C61.33521835 58.77668976 60.31423553 58.70547913 59.26231384 58.6321106 C56.50694981 58.43491683 53.75348578 58.22174625 51 58 C50.14806376 57.93755537 49.29612751 57.87511074 48.41837502 57.81077385 C47.62206861 57.74108454 46.82576221 57.67139523 46.00532532 57.59959412 C45.31241048 57.54275672 44.61949564 57.48591932 43.90558338 57.42735958 C40.25395497 56.60841962 37.96184716 54.05848047 35.4375 51.4375 C34.8801416 50.88884277 34.3227832 50.34018555 33.74853516 49.77490234 C32.64465784 48.68448304 31.54862712 47.58605072 30.46142578 46.47900391 C29.26097326 45.26411226 28.02382526 44.08558676 26.77734375 42.91796875 C15.74058507 32.51576704 4.84936721 18.49984921 0 4 C0 2.68 0 1.36 0 0 Z " fill="#0F7CB4" transform="translate(50,236)"/>
<path d="M0 0 C-0.56155383 5.03838572 -2.22589748 9.15041503 -4.5 13.625 C-4.85457275 14.3257666 -5.20914551 15.0265332 -5.57446289 15.74853516 C-13.50568993 30.95915506 -27.72201258 49.66416748 -43 58 C-46.0637473 58.81821059 -49.07775019 59.01766341 -52.23706055 59.19091797 C-53.14462695 59.25886503 -54.05219336 59.3268121 -54.98726177 59.39681816 C-56.95815806 59.54157663 -58.92982109 59.67617916 -60.90203476 59.80171967 C-64.04126043 60.00264081 -67.17719836 60.23251585 -70.31387329 60.4697876 C-77.27631146 60.99081187 -84.24141667 61.46896671 -91.20703125 61.9453125 C-93.75536205 62.12157931 -96.30367617 62.29808725 -98.85197449 62.474823 C-104.8116459 62.88757951 -110.77147819 63.29795305 -116.73139828 63.70709884 C-123.53239039 64.17412297 -130.33316328 64.64430277 -137.13392222 65.11470819 C-151.08904542 66.07990876 -165.04443055 67.04127475 -179 68 C-178.33076885 68.0145394 -177.6615377 68.02907881 -176.97202682 68.0440588 C-160.64450909 68.39903679 -144.31708674 68.75810049 -127.98975754 69.12164211 C-120.09379986 69.29735491 -112.19781673 69.47171413 -104.30175781 69.64282227 C-97.41491323 69.79206417 -90.52813172 69.94391155 -83.64141202 70.09881264 C-79.99918667 70.18064717 -76.35694384 70.26122786 -72.7146225 70.33868217 C-68.63614946 70.42546036 -64.55782752 70.51805859 -60.47949219 70.61108398 C-59.28833801 70.63554092 -58.09718384 70.65999786 -56.86993408 70.68519592 C-49.54815281 70.85809421 -42.29083847 71.30492471 -35 72 C-36.4367079 75.0027884 -37.80753675 77.02971842 -40.23828125 79.3203125 C-40.88700195 79.93334229 -41.53572266 80.54637207 -42.20410156 81.17797852 C-42.89987305 81.82049561 -43.59564453 82.4630127 -44.3125 83.125 C-45.03018555 83.79007568 -45.74787109 84.45515137 -46.48730469 85.14038086 C-62.5671609 99.87549943 -75.83643488 108.2386489 -98 108.125 C-98.9475415 108.12306641 -99.89508301 108.12113281 -100.87133789 108.11914062 C-115.58485084 108.03574513 -130.29550303 107.48975913 -145 107 C-144.44289841 107.12083954 -143.88579681 107.24167908 -143.31181335 107.36618042 C-137.51908798 108.6239779 -131.72836193 109.89068103 -125.9387207 111.16259766 C-123.7771127 111.63624579 -121.6150036 112.10761298 -119.45239258 112.57666016 C-116.34582429 113.25085461 -113.24114439 113.93320387 -110.13671875 114.6171875 C-109.16788254 114.82560272 -108.19904633 115.03401794 -107.20085144 115.24874878 C-106.3001442 115.44880524 -105.39943695 115.64886169 -104.47143555 115.85498047 C-103.67867722 116.02818817 -102.88591888 116.20139587 -102.06913757 116.37985229 C-100 117 -100 117 -97 119 C-106.53094787 129.19589772 -121.70952755 144.5577918 -136.50317383 145.13720703 C-137.96694909 145.14295427 -139.43076719 145.14092557 -140.89453125 145.1328125 C-141.69220413 145.12984161 -142.48987701 145.12687073 -143.3117218 145.12380981 C-152.78955917 145.04364851 -162.23195043 144.49604497 -171.6875 143.875 C-173.13947784 143.7809639 -173.13947784 143.7809639 -174.62078857 143.68502808 C-192.3849034 142.51832852 -210.12533699 141.05909628 -227.85415649 139.44805908 C-230.69518698 139.18998954 -233.53672676 138.93951377 -236.3789978 138.69549561 C-240.38239589 138.35067343 -244.38243137 137.97588667 -248.3828125 137.59765625 C-250.18751259 137.44601265 -250.18751259 137.44601265 -252.02867126 137.29130554 C-262.26628527 136.27546538 -262.26628527 136.27546538 -266 132 C-267.01953125 129.87890625 -267.01953125 129.87890625 -267.8125 127.5625 C-271.73949918 119.25865963 -279.81549615 114.33989584 -287 109 C-287.74652832 108.44296387 -288.49305664 107.88592773 -289.26220703 107.31201172 C-293.16355805 104.40967476 -297.08299447 101.53310703 -301.01171875 98.66796875 C-306.22992554 94.85049823 -311.36758173 90.93168672 -316.5 87 C-325.58456548 80.04863193 -334.75643654 73.22642339 -343.9921875 66.47753906 C-345.77743663 65.16378326 -347.54829832 63.83399015 -349.3125 62.4921875 C-357.05924762 56.66060804 -364.83166229 51.93952238 -374.75 51.75 C-375.54921875 51.72421875 -376.3484375 51.6984375 -377.171875 51.671875 C-384.51357035 52.52367391 -389.97209265 56.0358864 -395.6875 60.5 C-396.37448975 61.02319824 -397.06147949 61.54639648 -397.76928711 62.08544922 C-401.15432775 64.68884538 -404.45855937 67.36026072 -407.6796875 70.1640625 C-408.25243408 70.66228516 -408.82518066 71.16050781 -409.4152832 71.67382812 C-410.47916177 72.61108827 -411.5332402 73.55964632 -412.57495117 74.52148438 C-419.28669195 80.49146614 -426.8017031 80.43932226 -435.37890625 80.3203125 C-440.29153569 79.88575412 -443.00839214 78.87395766 -447 76 C-447.6953125 73.859375 -447.6953125 73.859375 -448 72 C-440.43910754 64.68229414 -431.92771769 58.73632505 -423.36083984 52.67138672 C-421.09731984 51.06889883 -418.83914129 49.4591549 -416.58203125 47.84765625 C-413.07559662 45.34961066 -409.55508364 42.8726959 -406.02294922 40.41113281 C-404.69409001 39.48417092 -403.36751231 38.55392807 -402.04345703 37.62011719 C-377.47693384 20.3402215 -377.47693384 20.3402215 -364 22 C-360.79506344 22.85052347 -357.88052806 24.11001576 -354.875 25.5 C-354.0075415 25.88365723 -353.14008301 26.26731445 -352.24633789 26.66259766 C-346.39725317 29.300686 -340.66297736 32.15370977 -334.94140625 35.0546875 C-334.24108276 35.40891785 -333.54075928 35.76314819 -332.81921387 36.12811279 C-329.32456196 37.89883642 -325.83971284 39.68540588 -322.36865234 41.50195312 C-301.43108473 52.33539516 -280.27999789 52.74730451 -257.60498047 48.25634766 C-256.04091195 47.95877512 -254.47657922 47.6625886 -252.91201115 47.36765385 C-248.69247351 46.56824836 -244.47684231 45.74978315 -240.26167178 44.92770553 C-235.76017842 44.05337222 -231.25521377 43.19728366 -226.75062561 42.33906555 C-219.08432884 40.87602855 -211.42020946 39.40203752 -203.75753784 37.9201355 C-192.85657931 35.81207855 -181.95221837 33.72209654 -171.04679954 31.63725078 C-154.45618105 28.46533057 -137.86764351 25.28270778 -121.28076172 22.09130859 C-97.83870879 17.58125095 -74.39163589 13.09807263 -50.93818283 8.64763641 C-45.01861125 7.52415019 -39.10009983 6.39531023 -33.18254566 5.26124668 C-29.64677179 4.58436949 -26.1103198 3.91109191 -22.57366753 3.23882103 C-20.99096131 2.9371749 -19.40854594 2.63399766 -17.8264637 2.32909584 C-15.72744837 1.92475858 -13.62745174 1.52598698 -11.52709961 1.12866211 C-10.37535751 0.9084288 -9.22361542 0.6881955 -8.03697205 0.46128845 C-5.29547705 0.04488028 -2.76590768 -0.09326276 0 0 Z " fill="#398EBB" transform="translate(814,236)"/>
<path d="M0 0 C46.85982741 -1.44702128 96.19850873 6.76095391 140.65869141 21.08251953 C142.04580322 21.526521 142.04580322 21.526521 143.4609375 21.97949219 C177.72877929 33.15260742 177.72877929 33.15260742 187.65869141 43.08251953 C187.83357587 45.59070125 187.89052765 47.98967285 187.85400391 50.49658203 C187.85198975 51.14328857 187.84997559 51.78999512 187.84790039 52.45629883 C187.83743166 54.87344448 187.80950901 57.29048909 187.78369141 59.70751953 C187.74244141 65.11126953 187.70119141 70.51501953 187.65869141 76.08251953 C205.47869141 76.08251953 223.29869141 76.08251953 241.65869141 76.08251953 C241.32869141 76.74251953 240.99869141 77.40251953 240.65869141 78.08251953 C238.13073579 78.7524473 235.66252703 79.29459621 233.09716797 79.77832031 C232.30526062 79.93466949 231.51335327 80.09101868 230.69744873 80.25210571 C228.06632813 80.76922587 225.43295817 81.27372202 222.79931641 81.77783203 C220.97414203 82.13307393 219.14909051 82.48894761 217.32415771 82.84542847 C213.49170723 83.59214036 209.65817714 84.33294477 205.82373047 85.06933594 C200.91132729 86.01296714 196.0012927 86.96829223 191.09195328 87.92772102 C187.31971586 88.66407094 183.54655228 89.39557601 179.77306366 90.12548447 C177.96276051 90.47597916 176.15268447 90.82764901 174.3428421 91.18051529 C171.80870548 91.67355181 169.27345726 92.16039781 166.73779297 92.64550781 C165.99057983 92.79197754 165.2433667 92.93844727 164.47351074 93.08935547 C160.73822825 93.79697647 157.49839147 94.08251953 153.65869141 94.08251953 C153.32869141 84.51251953 152.99869141 74.94251953 152.65869141 65.08251953 C64.78146317 25.53776683 -36.25165883 26.64631444 -126.12329102 60.32397461 C-129.15803526 61.36183376 -132.2574052 62.20140428 -135.34130859 63.08251953 C-135.01130859 74.96251953 -134.68130859 86.84251953 -134.34130859 99.08251953 C-143.3420075 97.95743217 -143.3420075 97.95743217 -146.70663452 97.21644592 C-147.47201538 97.0496785 -148.23739624 96.88291107 -149.02597046 96.71109009 C-149.83563263 96.53081268 -150.6452948 96.35053528 -151.47949219 96.16479492 C-152.35526917 95.97279007 -153.23104614 95.78078522 -154.13336182 95.58296204 C-157.00303069 94.95259524 -159.87144535 94.3167368 -162.73974609 93.68017578 C-164.74131914 93.23788255 -166.74291661 92.79569977 -168.74453735 92.35362244 C-172.92598318 91.42905591 -177.10674255 90.50145379 -181.28710938 89.57202148 C-186.65236788 88.37966241 -192.01982941 87.1975566 -197.38791466 86.0179987 C-201.51530772 85.10942642 -205.64119525 84.19416255 -209.76668167 83.27697563 C-211.74616559 82.83800988 -213.72618579 82.40145537 -215.70673752 81.96733284 C-218.46593177 81.36176265 -221.22289775 80.74691909 -223.97949219 80.12963867 C-225.21220352 79.86225891 -225.21220352 79.86225891 -226.46981812 79.58947754 C-232.11298498 78.31084314 -232.11298498 78.31084314 -234.34130859 76.08251953 C-213.22130859 76.08251953 -192.10130859 76.08251953 -170.34130859 76.08251953 C-170.34130859 65.19251953 -170.34130859 54.30251953 -170.34130859 43.08251953 C-161.14986151 38.48679599 -152.33937013 34.27829145 -142.77880859 30.70751953 C-142.16458038 30.47673706 -141.55035217 30.24595459 -140.91751099 30.00817871 C-95.86841959 13.12727608 -48.20024042 1.69881974 0 0 Z " fill="#4E90B2" transform="translate(427.34130859375,172.91748046875)"/>
<path d="M0 0 C28.85533066 -3.47508193 28.85533066 -3.47508193 36.79101562 1.88525391 C41.30753416 6.93114758 43.98221788 12.92886432 46.65380859 19.09716797 C48.66875015 23.44204558 51.34421316 27.1652034 54.1875 31 C54.67911621 31.68610352 55.17073242 32.37220703 55.67724609 33.07910156 C60.56658671 39.89375296 65.69898769 46.502046 71 53 C71.43683105 53.54124512 71.87366211 54.08249023 72.32373047 54.64013672 C84.5189294 69.66788461 98.35525354 84.53729796 114 96 C114.61907227 96.45777832 115.23814453 96.91555664 115.87597656 97.38720703 C125.22883179 104.27053772 134.71574629 110.58985926 145 116 C146.01191406 116.53882813 147.02382813 117.07765625 148.06640625 117.6328125 C153.66771042 120.42203335 156.72360941 121.55324818 163 120 C166.75793913 118.41218574 170.3407543 116.5466508 173.9375 114.625 C174.95295898 114.08770264 175.96841797 113.55040527 177.01464844 112.99682617 C190.02838796 105.98729301 201.82002955 97.66821344 213 88 C214.13695312 87.02933594 214.13695312 87.02933594 215.296875 86.0390625 C227.46908965 75.37816309 239.16358045 63.86301018 249 51 C249.7940625 49.9996875 250.588125 48.999375 251.40625 47.96875 C263.16694872 33.08982254 273.51496196 16.97007607 282 0 C293.55 0 305.1 0 317 0 C315.82447323 5.87763387 313.6204073 10.70533371 311.125 16.125 C310.63539795 17.18944336 310.1457959 18.25388672 309.64135742 19.35058594 C292.18566426 56.66599966 265.50283356 91.5058637 233 117 C231.90785637 117.88157781 230.81675404 118.76444681 229.7265625 119.6484375 C209.57309879 135.89152766 187.08194565 149.42925954 163 159 C161.81148437 159.47953125 160.62296875 159.9590625 159.3984375 160.453125 C154.9287907 161.17237851 152.28131403 159.77538982 148.5 157.625 C147.80350342 157.25068848 147.10700684 156.87637695 146.3894043 156.49072266 C144.94688071 155.71391644 143.50894472 154.92853181 142.07568359 154.13476562 C140.18963532 153.10367266 138.28866382 152.12689016 136.36328125 151.171875 C120.15089894 142.96758912 105.13159408 132.37944662 91 121 C90.10796875 120.30003906 89.2159375 119.60007812 88.296875 118.87890625 C74.44206645 107.83962166 61.60578473 95.36668384 50 82 C49.47647949 81.40445313 48.95295898 80.80890625 48.41357422 80.1953125 C30.17982057 59.34340875 15.31892102 35.50530889 3.375 10.5625 C3.03130371 9.84562012 2.68760742 9.12874023 2.33349609 8.39013672 C0.95283506 5.42045379 0 3.31477701 0 0 Z " fill="#4889AC" transform="translate(278,387)"/>
</svg>
